<?xml version="1.0" encoding="utf-8"?>
<!-- Generator: Adobe Illustrator 21.1.0, SVG Export Plug-In . SVG Version: 6.00 Build 0)  -->
<svg version="1.1" id="Layer_1" xmlns="http://www.w3.org/2000/svg" xmlns:xlink="http://www.w3.org/1999/xlink" x="0px" y="0px"
	 width="467px" height="428px" viewBox="0 0 467 428" style="enable-background:new 0 0 467 428;" xml:space="preserve">
<style type="text/css">
	.st0{fill:#0082D2;}
	.st1{fill:#00AAE1;}
	.st2{fill:#00D7E1;}
	.st3{fill:#00D2AA;}
	.st4{fill:#0A62A5;}
	.st5{fill:#00AA87;}
	.st6{fill:#008CB4;}
	.st7{fill:#00AAB4;}
	.st8{fill:#FFFFFF;}
	.st9{fill:#70B2BC;}
	.st10{fill:#7BACDD;}
	.st11{fill:#7BACDD;stroke:#7BACDD;stroke-width:2;stroke-miterlimit:10;}
	.st12{fill:#009CEA;}
	.st13{enable-background:new    ;}
</style>
<circle class="st0" cx="38.3" cy="47" r="35.7"/>
<circle class="st1" cx="38.3" cy="157.8" r="35.7"/>
<circle class="st2" cx="38.3" cy="268.6" r="35.7"/>
<circle class="st3" cx="38.3" cy="379.4" r="35.7"/>
<g>
	<g>
		<circle class="st4" cx="180.4" cy="47" r="1.6"/>
		<circle class="st4" cx="172" cy="47" r="1.6"/>
		<circle class="st4" cx="163.6" cy="47" r="1.6"/>
		<circle class="st4" cx="155.2" cy="47" r="1.6"/>
		<circle class="st4" cx="146.8" cy="47" r="1.6"/>
		<circle class="st4" cx="138.4" cy="47" r="1.6"/>
		<circle class="st4" cx="130" cy="47" r="1.6"/>
		<circle class="st4" cx="121.6" cy="47" r="1.6"/>
		<circle class="st4" cx="113.1" cy="47" r="1.6"/>
		<circle class="st4" cx="105.2" cy="47" r="1.6"/>
		<circle class="st4" cx="96.8" cy="47" r="1.6"/>
		<circle class="st4" cx="88.4" cy="47" r="1.6"/>
	</g>
</g>
<g>
	<g>
		<circle class="st5" cx="180.4" cy="379.4" r="1.6"/>
		<circle class="st5" cx="172" cy="379.4" r="1.6"/>
		<circle class="st5" cx="163.6" cy="379.4" r="1.6"/>
		<circle class="st5" cx="155.2" cy="379.4" r="1.6"/>
		<circle class="st5" cx="146.8" cy="379.4" r="1.6"/>
		<circle class="st5" cx="138.4" cy="379.4" r="1.6"/>
		<circle class="st5" cx="130" cy="379.4" r="1.6"/>
		<circle class="st5" cx="121.6" cy="379.4" r="1.6"/>
		<circle class="st5" cx="113.1" cy="379.4" r="1.6"/>
		<circle class="st5" cx="105.2" cy="379.4" r="1.6"/>
		<circle class="st5" cx="96.8" cy="379.4" r="1.6"/>
		<circle class="st5" cx="88.4" cy="379.4" r="1.6"/>
	</g>
</g>
<g>
	<g>
		<circle class="st6" cx="105.4" cy="157.8" r="1.6"/>
		<circle class="st6" cx="97" cy="157.8" r="1.6"/>
		<circle class="st6" cx="88.6" cy="157.8" r="1.6"/>
	</g>
</g>
<g>
	<g>
		<circle class="st7" cx="105.4" cy="268.6" r="1.6"/>
		<circle class="st7" cx="97" cy="268.6" r="1.6"/>
		<circle class="st7" cx="88.6" cy="268.6" r="1.6"/>
	</g>
</g>
<circle class="st4" cx="197.9" cy="47" r="9"/>
<circle class="st8" cx="197.9" cy="47" r="5.4"/>
<circle class="st6" cx="120.9" cy="157.8" r="9"/>
<circle class="st8" cx="120.9" cy="157.8" r="5.4"/>
<circle class="st7" cx="120.9" cy="268.6" r="9"/>
<circle class="st8" cx="120.9" cy="268.6" r="5.4"/>
<circle class="st5" cx="195.7" cy="379.4" r="9"/>
<circle class="st8" cx="195.7" cy="379.4" r="5.4"/>
<g>
	<path class="st9" d="M120.4,259.6c-1.2,0.1-2.3,0.4-3.4,0.9c-3.5-15.1-5.3-30.8-5.3-47c0-16.3,1.9-32.2,5.4-47.5
		c1,0.5,2.2,0.8,3.4,0.8c-3.5,15-5.3,30.6-5.3,46.7C115.2,229.3,117,244.8,120.4,259.6z"/>
	<path class="st9" d="M202.1,385.8c0.8-0.8,1.5-1.8,1.9-2.9c33.3,23.1,73.7,36.6,117.1,36.6c30.9,0,61.6-7,89.2-20.3
		c0-0.3-0.1-0.6-0.1-0.9c0-3,2.4-5.4,5.4-5.4s5.4,2.4,5.4,5.4c0,3-2.4,5.4-5.4,5.4c-1.4,0-2.7-0.6-3.7-1.5
		c-28.2,13.6-59.4,20.7-90.9,20.7C277,423,235.9,409.2,202.1,385.8z"/>
	<path class="st9" d="M125.1,276.6c12.2,37.9,35.1,71,65.1,95.7c-0.9,0.7-1.7,1.6-2.3,2.6c-30.5-25.2-53.7-58.9-66.1-97.4
		C122.9,277.5,124,277.1,125.1,276.6z"/>
	<g>
		<path class="st9" d="M205.9,42.9c-0.5-1-1.3-2-2.2-2.7C237.2,17.3,277.7,4,321.2,4c31.3,0,62.5,7.1,90.6,20.6c1-1.1,2.4-1.8,4-1.8
			c3,0,5.4,2.4,5.4,5.4c0,3-2.4,5.4-5.4,5.4c-3,0-5.4-2.4-5.4-5.4c0-0.2,0-0.3,0-0.5C382.7,14.5,352,7.5,321.2,7.5
			C278.5,7.5,238.8,20.5,205.9,42.9z"/>
		<path class="st9" d="M189.6,50.6c0.5,1.1,1.2,2.1,2,2.9c-30.6,24.8-53.9,58.2-66.4,96.4c-1-0.6-2.1-0.9-3.3-1.1
			C134.6,109.9,158.4,75.9,189.6,50.6z"/>
	</g>
</g>
<g>
	<path class="st8" d="M15.9,48.5c0,1.5,0.4,2.9,1.1,4.2C17,53.1,17,53.5,17,53.9c0,2,0.6,3.7,1.7,5.2c0,2.7,0.8,4.8,2.5,6.4
		c1.7,1.6,3.9,2.3,6.6,2.3h1h2.7c1.9,0,3.7-0.2,5.5-0.7s3.9-1.1,6.3-1.9c2.3-0.8,3.6-1.2,4-1.2h8.4c1,0,1.9-0.4,2.6-1.1
		c0.7-0.7,1.1-1.6,1.1-2.6V41.8c0-1-0.4-1.9-1.1-2.6c-0.7-0.7-1.6-1.1-2.6-1.1h-8c-0.7-0.5-2-2-4-4.5c-1.1-1.5-2.2-2.7-3.1-3.7
		c-0.5-0.5-0.8-1.3-1-2.5c-0.2-1.2-0.5-2.4-0.9-3.7c-0.4-1.3-1-2.3-1.8-3.1c-0.8-0.7-1.6-1.1-2.6-1.1c-1.6,0-3.1,0.3-4.4,0.9
		c-1.3,0.6-2.3,1.6-3,3s-1,3.1-1,5.4c0,1.8,0.5,3.7,1.4,5.6h-5.1c-2,0-3.8,0.7-5.2,2.2c-1.5,1.5-2.2,3.2-2.2,5.2
		c0,1.7,0.5,3.3,1.4,4.8C16,47.1,15.9,47.8,15.9,48.5z M52.1,58.6c0-0.5,0.2-0.9,0.6-1.3c0.4-0.4,0.8-0.6,1.3-0.6
		c0.5,0,0.9,0.2,1.3,0.6c0.4,0.4,0.6,0.8,0.6,1.3s-0.2,0.9-0.6,1.3s-0.8,0.6-1.3,0.6s-0.9-0.2-1.3-0.6
		C52.3,59.5,52.1,59.1,52.1,58.6z M18.5,41.8c0-1,0.4-1.9,1.1-2.6c0.8-0.7,1.6-1.1,2.6-1.1h10.3c0-1.1-0.5-2.7-1.4-4.6
		c-0.9-2-1.4-3.5-1.4-4.7c0-1.9,0.3-3.3,0.9-4.2c0.6-0.9,1.9-1.4,3.7-1.4c0.5,0.5,0.9,1.3,1.1,2.5c0.2,1.1,0.5,2.4,0.9,3.7
		s0.9,2.4,1.7,3.2c0.4,0.4,1.2,1.3,2.2,2.7c0.1,0.1,0.3,0.4,0.7,0.9s0.7,0.9,0.9,1.2s0.6,0.7,1,1.2s0.8,0.9,1.2,1.3s0.7,0.7,1.1,1
		c0.4,0.3,0.8,0.6,1.2,0.8c0.4,0.2,0.7,0.3,1,0.3h0.9v18.7h-0.9c-0.3,0-0.6,0-0.9,0.1c-0.4,0.1-0.7,0.1-1,0.2
		c-0.3,0.1-0.7,0.2-1.1,0.3c-0.5,0.1-0.8,0.3-1,0.3c-0.2,0.1-0.6,0.2-1,0.4S41.6,62,41.5,62c-4.1,1.4-7.4,2.1-10,2.1H28
		c-3.7,0-5.6-1.6-5.6-4.9c0-0.5,0-1,0.1-1.6c-0.6-0.3-1-0.8-1.4-1.5c-0.3-0.7-0.5-1.4-0.5-2.1c0-0.7,0.2-1.4,0.5-2
		c-1-1-1.5-2.1-1.5-3.5c0-0.5,0.1-1,0.3-1.6c0.2-0.6,0.4-1.1,0.7-1.4c-0.6,0-1.1-0.5-1.6-1.4C18.7,43.2,18.5,42.4,18.5,41.8z"/>
</g>
<g>
	<g>
		<path class="st8" d="M7.6,373.4c0,0.3,0.1,0.5,0.3,0.7l5.9,6c0.2,0.2,0.4,0.3,0.7,0.3c0.3,0,0.5-0.1,0.7-0.3l0.5-0.5l2.9,2.9
			c0.4,0.4,0.7,0.9,0.7,1.4c0.6,3.1,2,6,4.3,8.2l0.8,0.8c-0.4,0.6-0.6,1.2-0.6,1.9c0,0.9,0.3,1.7,1,2.3c0.5,0.5,1,0.8,1.7,0.9
			c-0.1,0.3-0.1,0.5-0.1,0.8c0,0.9,0.3,1.7,1,2.3c0.6,0.6,1.5,1,2.3,1c0.7,0,1.4-0.2,1.9-0.6c0.2,0.4,0.4,0.8,0.8,1.2
			c0.6,0.6,1.5,1,2.3,1s1.7-0.3,2.3-1l0.1-0.1c0.2,0.4,0.4,0.8,0.7,1.1c0.6,0.6,1.4,1,2.3,1c0.4,0,0.7-0.1,1.1-0.2
			c0.1,0.1,0.1,0.1,0.2,0.2c0.7,0.7,1.6,1,2.5,1s1.8-0.4,2.5-1c0.7-0.7,1-1.6,1-2.6c0,0,0.1,0,0.1,0c0.9,0,1.8-0.4,2.5-1
			c0.7-0.7,1.1-1.7,1-2.7c0.1,0,0.1,0,0.2,0c0.9,0,1.8-0.3,2.5-1c0.7-0.7,1-1.6,1-2.5c0-0.9-0.3-1.8-1-2.4l0.3-0.3
			c2.2-2.2,3.7-5,4.3-8.1c0.1-0.6,0.4-1.1,0.8-1.6l1.7-1.7l0.4,0.4c0.2,0.2,0.4,0.3,0.7,0.3s0.5-0.1,0.7-0.3l6-6
			c0.4-0.4,0.4-1,0-1.4l-13.2-13.2c-0.4-0.4-1-0.4-1.4,0l-6,6c-0.2,0.2-0.3,0.4-0.3,0.7c0,0.3,0.1,0.5,0.3,0.7l0.3,0.3l-2.4,2.4
			c-0.8,0.8-2.1,1.1-3.2,0.7c-0.7-0.3-1.5-0.4-2.3-0.4c-0.5,0-1.1,0.1-1.6,0.2c-1.2-0.7-2.6-1-4.1-1c-1.2,0-2.4,0.3-3.5,0.8
			c-1.2,0.5-2.5,0.3-3.4-0.6l-1.4-1.4l0.6-0.6c0.2-0.2,0.3-0.4,0.3-0.7c0-0.3-0.1-0.5-0.3-0.7l-5.9-6c-0.4-0.4-1-0.4-1.4,0
			L7.9,372.7C7.7,372.9,7.6,373.1,7.6,373.4z M50.1,367.1l4.6-4.6l11.9,11.9l-4.6,4.6L50.1,367.1z M50.1,393.7
			c0.3-0.3,0.7-0.5,1.1-0.5s0.8,0.2,1.1,0.5c0.3,0.3,0.5,0.7,0.5,1.1c0,0.4-0.2,0.8-0.5,1.1c-0.6,0.6-1.6,0.6-2.2,0
			C49.5,395.3,49.5,394.3,50.1,393.7z M46.4,397.4c0.3-0.3,0.7-0.5,1.1-0.5s0.8,0.2,1.1,0.5c0.6,0.6,0.6,1.6,0,2.2
			c-0.3,0.3-0.7,0.5-1.1,0.5c-0.4,0-0.8-0.2-1.1-0.5C45.8,399,45.8,398,46.4,397.4z M42.8,401c0.3-0.3,0.7-0.5,1.1-0.5
			s0.8,0.2,1.1,0.5c0.6,0.6,0.6,1.6,0,2.2c-0.3,0.3-0.7,0.5-1.1,0.5c-0.4,0-0.8-0.2-1.1-0.5C42.2,402.6,42.2,401.6,42.8,401z
			 M25.8,394.7c0-0.4,0.1-0.7,0.4-0.9l11.5-11.5c0,0,0,0,0,0l0,0c0,0,0,0,0,0l0,0l0,0c0,0,0,0,0,0l0.8-0.8l3,3
			c0.8,0.8,1.8,1.1,2.8,1.1c1,0,2-0.4,2.8-1.1c0.7-0.7,1.2-1.7,1.2-2.8s-0.4-2-1.2-2.8l-6.1-6.1c0.3,0,0.6,0.1,0.9,0.2
			c0.6,0.2,1.2,0.3,1.8,0.3c1.3,0,2.6-0.5,3.5-1.4l2.4-2.4l9.8,9.8l-1.7,1.7c-0.7,0.7-1.2,1.6-1.4,2.6c-0.5,2.7-1.8,5.1-3.7,7.1
			l-0.7,0.7c-1.1-0.3-2.4,0-3.3,0.9c-0.7,0.7-1.1,1.7-1,2.7c-0.1,0-0.1,0-0.2,0c-0.9,0-1.8,0.4-2.5,1c-0.7,0.7-1,1.6-1,2.6
			c0,0-0.1,0-0.1,0c-0.9,0-1.8,0.4-2.5,1c-0.8,0.8-1.2,1.9-1,3c-0.1,0-0.2,0-0.3,0c-0.4,0-0.7-0.1-0.9-0.4c-0.3-0.3-0.4-0.6-0.4-0.9
			s0.1-0.7,0.4-0.9c0,0,0,0,0,0l6.4-6.4c0.4-0.4,0.4-1,0-1.4s-1-0.4-1.4,0l-8.6,8.6c-0.5,0.5-1.4,0.5-1.9,0
			c-0.3-0.3-0.4-0.6-0.4-0.9c0-0.4,0.1-0.7,0.4-0.9l8-8c0.4-0.4,0.4-1,0-1.4s-1-0.4-1.4,0l-7.9,7.9c0,0,0,0,0,0c0,0,0,0,0,0
			l-1.7,1.7c-0.5,0.5-1.4,0.5-1.9,0c-0.3-0.3-0.4-0.6-0.4-0.9c0-0.4,0.1-0.7,0.4-0.9L39,387.6c0.4-0.4,0.4-1,0-1.4s-1-0.4-1.4,0
			l-9.5,9.5c-0.3,0.3-0.6,0.4-0.9,0.4s-0.7-0.1-0.9-0.4C25.9,395.4,25.8,395.1,25.8,394.7z M17.1,378.1l8-8l1.4,1.4
			c1.5,1.5,3.7,1.9,5.6,1c0.8-0.4,1.8-0.6,2.7-0.6c1.2,0,2.4,0.3,3.4,1c0.4,0.3,0.8,0.6,1.2,0.9l6.5,6.5c0.4,0.4,0.6,0.9,0.6,1.4
			s-0.2,1-0.6,1.4c-0.8,0.8-2,0.8-2.8,0l-3.7-3.7c0,0,0,0,0,0s0,0,0,0l-1.6-1.6c-0.4-0.4-1-0.4-1.4,0c-0.4,0.4-0.4,1,0,1.4l0.9,0.9
			l-0.8,0.8h0l0,0l0,0l0,0c0,0,0,0,0,0c-0.3,0.3-3.4,3.2-5.9,2.1c-0.5-0.2-1.1,0-1.3,0.5s0,1.1,0.5,1.3c0.6,0.3,1.3,0.4,1.9,0.4
			c0.1,0,0.3,0,0.4,0l-6.2,6.2l-0.8-0.8c-2-2-3.2-4.4-3.7-7.2c-0.2-0.9-0.6-1.8-1.3-2.4L17.1,378.1z M9.9,373.4l10.5-10.5l4.6,4.6
			L14.5,378L9.9,373.4z"/>
	</g>
</g>
<path class="st10" d="M334.9,94.7c-39.3,0-71.2,31.9-71.2,71.2s31.9,71.2,71.2,71.2s71.2-31.9,71.2-71.2S374.2,94.7,334.9,94.7z
	 M334.9,232.5c-36.8,0-66.6-29.8-66.6-66.6s29.8-66.6,66.6-66.6s66.6,29.8,66.6,66.6S371.7,232.5,334.9,232.5z"/>
<g>
	<g>
		<path class="st11" d="M283.1,163.7c-0.7-11.6,2.9-23.6,10.3-32.7c1.9-2.3,4.1-4.3,6.7-5.8c2.7-1.5,5.6-2.4,8.5-3.5
			c5.7-2.2,11.1-4.9,16.7-7.3c10.1-4.4,22.5-7.7,32.9-2.2c9.1,4.8,12,15.3,17.1,23.4c2.5,4,5.6,6.9,9.5,9.7c2.2,1.5,4.4,3.2,5.8,5.5
			c1.6,2.8,1.6,6.2,1.5,9.3c-0.3,10.7-3.2,21.5-9,30.6c-2.9,4.5-6.4,8.6-10.6,11.9c-4.7,3.8-10.1,6.6-15.5,9.1
			c-5.5,2.5-11.3,5.1-17.1,6.9c-3.2,1-6.4,1.6-9.7,1.5c-3.2,0-6.4-0.6-9.6-1.1c-3-0.5-6-1-9-1.2c-3-0.2-6,0.2-8.9,0
			c-6.6-0.6-9.8-6.6-11.3-12.4c-0.8-3.2-1.1-6.5-0.9-9.8c0.2-2.9,0.4-5.7,0-8.6c-0.9-5.7-3.3-11.1-5.3-16.5
			C284.4,168.4,283.1,165.9,283.1,163.7c0-0.6-0.9-0.6-0.9,0c0,2.3,1.3,4.8,2.1,7c1.1,2.9,2.2,5.7,3.2,8.6c1,3,2,6.1,2.3,9.3
			c0.3,3.3-0.3,6.6-0.2,10c0.1,5.6,1.7,11.8,5.3,16.2c1.7,2.1,4,3.4,6.7,3.9c2.9,0.5,5.8,0.1,8.6,0.1c6.7,0.1,13.3,2.3,20,2.4
			c6.6,0.1,12.7-2.4,18.8-4.9c11.1-4.6,22.3-9.5,30.4-18.8c7.2-8.3,11.5-18.9,13-29.7c0.4-2.7,0.6-5.4,0.7-8.1
			c0.1-2.8,0-5.8-1.2-8.4c-2.2-4.8-7.6-6.9-11.2-10.4c-7.4-7.2-9.3-18.1-16.5-25.4c-7.8-7.9-19.8-8.2-29.8-5.3
			c-6.2,1.8-12,4.6-17.9,7.3c-3.1,1.4-6.3,2.8-9.5,4c-2.9,1-5.8,2.1-8.3,3.7c-4.9,3.1-8.4,8.3-11,13.3c-2.6,5.1-4.4,10.7-5.1,16.5
			c-0.4,2.9-0.4,5.9-0.3,8.8C282.2,164.3,283.1,164.3,283.1,163.7z"/>
	</g>
</g>
<g>
	<g>
		<path class="st11" d="M295.2,160.7c0.7-8.1,5.3-15,10.8-20.8c2.8-2.9,5.9-5.5,9-8c3.5-2.8,7.2-5.7,11.4-7.3c7.5-2.9,16-0.5,22,4.6
			c6.5,5.4,8.5,14,14.3,19.9c2.9,2.9,6.5,5.4,8.3,9.2c1.9,3.9,2,8.6,1.6,12.8c-0.9,8.5-5.1,16.6-11.6,22.2
			c-6.7,5.6-15.2,8.3-23.8,7.9c-4.5-0.2-9-0.9-13.5-0.2c-4.6,0.7-8.6,3.4-13,4.7c-1.7,0.5-3.1,0.5-4.4-0.9c-0.8-0.9-1.5-2-2.1-3.1
			c-1.1-1.9-2-4-2.8-6.2c-1.5-4.4-2.4-9.1-3.2-13.6c-0.4-2.2-0.8-4.3-1.2-6.5c-0.5-2.3-1.2-4.5-1.6-6.7c-0.3-1.7,0.1-3.4,0-5.2
			C295.5,162.7,295.3,161.7,295.2,160.7c-0.1-0.6-1-0.6-0.9,0c0.1,0.9,0.2,1.9,0.3,2.8c0.1,1.6-0.3,3.1-0.1,4.7
			c0.2,2,0.9,3.9,1.4,5.8c0.5,2.1,0.9,4.3,1.3,6.5c1.5,8.3,2.8,17.7,8.2,24.5c1.1,1.4,2.4,2.2,4.2,2c2.2-0.3,4.3-1.3,6.2-2.2
			c2.4-1.1,4.8-2.2,7.4-2.7c2.7-0.5,5.5-0.5,8.2-0.3c4.8,0.3,9.5,0.7,14.3-0.1c4.2-0.8,8.2-2.3,11.8-4.5
			c7.4-4.5,12.8-11.8,15.1-20.1c1.1-4.2,1.5-8.5,1.1-12.8c-0.5-4.3-2.2-7.9-5.2-11c-1.5-1.6-3.2-3-4.8-4.5c-1.7-1.7-3.2-3.7-4.4-5.8
			c-2.3-3.8-4-7.9-6.9-11.2c-5-5.8-12.9-9.8-20.7-9.1c-4.3,0.4-8.1,2.3-11.6,4.7c-3.6,2.5-7,5.2-10.3,8.1
			c-6.1,5.3-11.8,11.7-14.2,19.6c-0.6,1.9-0.9,3.8-1.1,5.8C294.3,161.3,295.2,161.3,295.2,160.7z"/>
	</g>
</g>
<path id="XMLID_1_" class="st12" d="M344.1,159.3v12.5c0,0.5-0.1,0.8-0.3,1.2s-0.5,0.5-0.8,0.5h-6.4v-9.7h-6.2v9.7h-6.2
	c-0.3,0-0.6-0.2-0.8-0.5c-0.2-0.3-0.3-0.7-0.3-1.2v-12.5c0,0,0,0,0-0.1c0,0,0-0.1,0-0.1l10.4-9.1l10.7,9.1
	C344.1,159.2,344.1,159.2,344.1,159.3z"/>
<g>
	<path class="st12" d="M266.4,295.5h1.6l-4.1,4.5l4.4,4.9h-1.7l-4.3-4.8v4.8h-1.4v-9.4h1.4v4.6L266.4,295.5z"/>
	<path class="st12" d="M274.4,305.1c-0.6,0-1.2-0.1-1.7-0.3c-0.5-0.2-0.9-0.6-1.3-1h-0.1c0.1,0.5,0.1,1.1,0.1,1.6v3.9H270v-13.7h1.2
		l0.2,1.3h0.1c0.4-0.5,0.8-0.9,1.3-1.1c0.5-0.2,1-0.3,1.7-0.3c1.3,0,2.2,0.4,2.9,1.3c0.7,0.9,1,2.1,1,3.6c0,1.5-0.3,2.8-1,3.6
		C276.6,304.7,275.7,305.1,274.4,305.1z M274.2,296.6c-1,0-1.7,0.3-2.1,0.8s-0.7,1.4-0.7,2.5v0.3c0,1.3,0.2,2.3,0.7,2.8
		c0.4,0.6,1.1,0.9,2.1,0.9c0.8,0,1.5-0.3,1.9-1c0.5-0.7,0.7-1.6,0.7-2.7c0-1.2-0.2-2.1-0.7-2.7C275.7,296.9,275.1,296.6,274.2,296.6
		z"/>
	<path class="st12" d="M289,300.3c0,1.5-0.4,2.7-1.2,3.6c-0.8,0.9-1.8,1.3-3.2,1.3c-0.8,0-1.6-0.2-2.2-0.6c-0.7-0.4-1.2-1-1.5-1.7
		c-0.4-0.7-0.5-1.6-0.5-2.6c0-1.5,0.4-2.7,1.2-3.6s1.8-1.3,3.2-1.3c1.3,0,2.4,0.4,3.1,1.3C288.6,297.6,289,298.8,289,300.3z
		 M281.8,300.3c0,1.2,0.2,2.1,0.7,2.8c0.5,0.6,1.2,0.9,2.1,0.9s1.6-0.3,2.1-0.9c0.5-0.6,0.7-1.5,0.7-2.8c0-1.2-0.2-2.1-0.7-2.7
		s-1.2-0.9-2.1-0.9c-0.9,0-1.6,0.3-2.1,0.9C282,298.1,281.8,299,281.8,300.3z"/>
	<path class="st12" d="M299.1,297.9c0,0.6-0.2,1.1-0.5,1.4s-0.8,0.5-1.5,0.6v0.1c0.8,0.1,1.4,0.3,1.8,0.7c0.4,0.4,0.6,0.9,0.6,1.5
		c0,0.9-0.3,1.6-1,2s-1.6,0.7-2.8,0.7h-4.2v-9.4h4.1C298,295.5,299.1,296.3,299.1,297.9z M297.7,298.1c0-0.5-0.2-0.8-0.5-1
		c-0.4-0.2-0.9-0.3-1.6-0.3h-2.7v2.7h2.4c0.9,0,1.5-0.1,1.9-0.3C297.6,298.9,297.7,298.5,297.7,298.1z M298,302.1
		c0-0.5-0.2-0.9-0.6-1.1c-0.4-0.2-1-0.3-1.9-0.3h-2.6v3.1h2.6C297.2,303.8,298,303.2,298,302.1z"/>
	<path class="st12" d="M307.3,305l-0.3-1.3h-0.1c-0.5,0.6-0.9,1-1.4,1.2c-0.5,0.2-1.1,0.3-1.8,0.3c-0.9,0-1.7-0.2-2.2-0.7
		c-0.5-0.5-0.8-1.2-0.8-2.1c0-1.9,1.5-2.9,4.6-3l1.6-0.1v-0.6c0-0.7-0.2-1.3-0.5-1.6s-0.8-0.5-1.5-0.5c-0.8,0-1.7,0.2-2.7,0.7
		l-0.4-1.1c0.5-0.3,1-0.5,1.5-0.6c0.6-0.1,1.1-0.2,1.7-0.2c1.1,0,2,0.3,2.5,0.7c0.5,0.5,0.8,1.3,0.8,2.4v6.4L307.3,305L307.3,305z
		 M304.1,304c0.9,0,1.6-0.2,2.1-0.7c0.5-0.5,0.8-1.2,0.8-2v-0.9l-1.4,0.1c-1.1,0-2,0.2-2.5,0.5c-0.5,0.3-0.8,0.8-0.8,1.5
		c0,0.5,0.2,0.9,0.5,1.2C303.1,303.8,303.5,304,304.1,304z"/>
	<path class="st12" d="M317.7,296.8h-3.1v8.2h-1.4v-8.2h-3v-1.2h7.5L317.7,296.8L317.7,296.8z"/>
	<path class="st12" d="M325,295.5h1.6l-4.1,4.5l4.4,4.9h-1.7l-4.3-4.8v4.8h-1.4v-9.4h1.4v4.6L325,295.5z"/>
	<path class="st12" d="M330,295.5v6l-0.1,1.6l0,0.5l5.1-8h1.8v9.4h-1.3v-5.8l0-1.1l0-1.1l-5.1,8h-1.8v-9.4L330,295.5L330,295.5z"/>
	<path class="st12" d="M339,300.9v-1.3h4.2v1.3H339z"/>
	<path class="st12" d="M353.7,308.2h-1.4V305h-6.6v3.3h-1.4v-4.5h0.7c0.8-1,1.4-2.3,1.8-3.7c0.4-1.4,0.7-2.9,0.7-4.5h4.8v8.2h1.4
		L353.7,308.2L353.7,308.2z M351,303.7v-7.1h-2.1c-0.1,1.3-0.3,2.6-0.7,3.9c-0.4,1.3-0.9,2.4-1.6,3.2H351z"/>
	<path class="st12" d="M363.7,300.3c0,1.5-0.4,2.7-1.2,3.6c-0.8,0.9-1.8,1.3-3.2,1.3c-0.8,0-1.6-0.2-2.2-0.6c-0.7-0.4-1.2-1-1.5-1.7
		c-0.4-0.7-0.5-1.6-0.5-2.6c0-1.5,0.4-2.7,1.2-3.6s1.8-1.3,3.2-1.3c1.3,0,2.4,0.4,3.1,1.3C363.3,297.6,363.7,298.8,363.7,300.3z
		 M356.5,300.3c0,1.2,0.2,2.1,0.7,2.8s1.2,0.9,2.1,0.9s1.6-0.3,2.1-0.9c0.5-0.6,0.7-1.5,0.7-2.8c0-1.2-0.2-2.1-0.7-2.7
		s-1.2-0.9-2.1-0.9c-0.9,0-1.6,0.3-2.1,0.9C356.8,298.1,356.5,299,356.5,300.3z"/>
	<path class="st12" d="M371.1,303.6l0.3-0.8l0.4-1l2.6-6.2h1.8v9.4h-1.3v-7.8l-0.2,0.5l-0.5,1.3l-2.4,6h-1.2l-2.4-6
		c-0.3-0.8-0.5-1.4-0.6-1.8v7.8h-1.3v-9.4h1.7l2.5,6C370.7,302.2,370.9,302.9,371.1,303.6z"/>
	<path class="st12" d="M380.5,295.5v6l-0.1,1.6l0,0.5l5.1-8h1.8v9.4H386v-5.8l0-1.1l0-1.1l-5.1,8h-1.8v-9.4L380.5,295.5L380.5,295.5
		z"/>
	<path class="st12" d="M395.8,295.5h1.6l-4.1,4.5l4.4,4.9H396l-4.3-4.8v4.8h-1.4v-9.4h1.4v4.6L395.8,295.5z"/>
	<path class="st12" d="M400.8,295.5v6l-0.1,1.6l0,0.5l5.1-8h1.8v9.4h-1.3v-5.8l0-1.1l0-1.1l-5.1,8h-1.8v-9.4L400.8,295.5
		L400.8,295.5z"/>
</g>
<circle class="st10" cx="415.2" cy="398.8" r="8"/>
<circle class="st10" cx="415.2" cy="27.8" r="8"/>
<g>
	<g>
		<g>
			<path class="st8" d="M17.3,140.4v2.6c0,2.9,2.4,5.3,5.3,5.3h4.7v3.1c-3.3,0.8-6.1,2.9-7.8,5.8c-0.3,0.5-0.1,1,0.4,1.3
				c0.1,0.1,0.3,0.1,0.5,0.1c0.3,0,0.7-0.2,0.8-0.5c1.5-2.7,4.1-4.5,7.1-5c0,0,0.1,0,0.1,0c0.5-0.1,1-0.1,1.5-0.1
				c2.1,0,4.1,0.7,5.8,1.9c0.4,0.3,1,0.2,1.3-0.2s0.2-1-0.2-1.3c-2-1.5-4.4-2.2-7-2.2c-0.3,0-0.5,0-0.8,0v-3.8v-2.6v-3.4h5.4
				c3.8,0,6.8-3.1,6.8-6.8v-2.6c0-0.5-0.4-1-1-1h-6.4c-3.8,0-6.8,3.1-6.8,6.8v2.6v0.3c-0.9-0.8-2.1-1.2-3.4-1.2h-5.6
				C17.7,139.4,17.3,139.9,17.3,140.4z M29.1,139.4v-1.7c0-2.7,2.2-4.9,4.9-4.9h5.4v1.7c0,2.7-2.2,4.9-4.9,4.9L29.1,139.4
				L29.1,139.4z M19.2,141.3h4.7c1.9,0,3.4,1.5,3.4,3.4v1.6h-4.7c-1.9,0-3.4-1.5-3.4-3.4V141.3z"/>
		</g>
	</g>
	<g>
		<g>
			<path class="st8" d="M15.6,167l12.8,5.7c2.6,1.1,5.5,1.1,8-0.2l4.7-2.3c2-1,4.3-1,6.3-0.1l0.1,0.1c-0.1,0.5-0.1,1,0.1,1.5
				c0.2,0.6,0.7,1.1,1.3,1.3l12.2,6.2c0.1,0.1,0.3,0.1,0.4,0.1c0.2,0,0.3,0,0.5-0.1c0.3-0.2,0.5-0.5,0.5-0.8v-16.9
				c0-0.4-0.2-0.7-0.6-0.9l-6.3-2.8c-0.6-0.3-1.3-0.3-1.9,0c-0.5,0.2-0.9,0.5-1.2,0.9l-4.9-2.2c-2.8-1.2-5.9-1.3-8.7-0.3l-9.4,3.5
				c-1.8,0.7-2.8,2.7-2.2,4.6c0.5,1.5,1.9,2.4,3.4,2.4c0.4,0,0.8-0.1,1.2-0.2l7.3-2.5c0.5-0.2,0.8-0.7,0.6-1.2s-0.7-0.8-1.2-0.6
				l-7.3,2.5c-0.9,0.3-1.9-0.2-2.2-1.1c-0.3-0.9,0.2-1.8,1-2.1l9.4-3.5c2.4-0.9,5-0.8,7.3,0.2l4.9,2.1l-3.5,7.9l-0.1,0
				c-2.6-1.1-5.5-1.1-8,0.2l-4.7,2.3c-2,1-4.3,1-6.3,0.1l-12.8-5.7c-0.9-0.4-1.4-1.5-0.9-2.4c0.4-0.9,1.5-1.3,2.4-0.9l6.3,2.9
				c0.5,0.2,1.1,0,1.3-0.5c0.2-0.5,0-1.1-0.5-1.3l-6.3-2.9c0,0,0,0,0,0c-1.9-0.8-4.1,0-5,1.9C12.8,163.9,13.7,166.2,15.6,167z
				 M49.4,170.5l0.2-0.6c0,0,0,0,0,0l4.5-10.2c0.1-0.1,0.2-0.2,0.3-0.3c0.1,0,0.3,0,0.4,0l5.7,2.5v8.4l-2-1c-0.5-0.2-1,0-1.3,0.4
				c-0.2,0.5,0,1.1,0.4,1.3l2.8,1.4v4.2l-10.9-5.5c0,0,0,0,0,0c-0.1-0.1-0.2-0.2-0.3-0.3C49.3,170.8,49.3,170.6,49.4,170.5z"/>
		</g>
	</g>
</g>
<g>
	<g>
		<g>
			<path class="st8" d="M63,279.3l-5.2-5.2l0.9-1.9c0.3-0.6,0.3-1.2,0.1-1.8s-0.6-1.1-1.2-1.3c-0.9-0.4-2-0.3-2.7,0.5
				c-0.2,0.2-0.3,0.4-0.5,0.6l-0.2,0.4l-1.6-1.6l0.9-1.9c0.3-0.6,0.3-1.2,0.1-1.8c-0.2-0.6-0.6-1.1-1.2-1.3c-0.9-0.4-2-0.3-2.7,0.5
				c-0.2,0.2-0.3,0.4-0.5,0.6l-0.2,0.4l-1.6-1.6l0.9-1.9c0.3-0.6,0.3-1.2,0.1-1.8c-0.2-0.6-0.6-1.1-1.2-1.3c-0.9-0.4-2-0.3-2.7,0.5
				l0,0c-0.2,0.2-0.3,0.4-0.5,0.6l-0.2,0.4l-1.6-1.6l0.9-1.9c0.3-0.6,0.3-1.2,0.1-1.8c-0.2-0.6-0.6-1.1-1.2-1.3
				c-0.9-0.4-2-0.3-2.7,0.5c-0.3,0.3-0.5,0.7-0.6,1l-2.2-2.2l3.9-3.9c0.9-0.9,0.9-2.4,0-3.3l-4.3-4.3c-0.9-0.9-2.4-0.9-3.3,0
				l-4.7,4.7c-0.3,0.3-0.3,0.8,0,1.1s0.8,0.3,1.1,0l1.3-1.3l5.4,5.4l-8.5,8.5l-5.4-5.4l4.4-4.4c0.3-0.3,0.3-0.8,0-1.1
				s-0.8-0.3-1.1,0l-7.9,7.9c-0.9,0.9-0.9,2.4,0,3.3l4.3,4.3c0.9,0.9,2.4,0.9,3.3,0l3.9-3.9l4.8,4.8l-0.9,1.9
				c-0.6,1.2-0.1,2.6,1.1,3.1c0.6,0.3,1.2,0.3,1.8,0.1c0.6-0.2,1.1-0.6,1.3-1.2l0.2-0.4l1.6,1.6l-0.9,1.9c-0.3,0.7-0.3,1.5,0,2.1
				c0.3,0.6,0.9,1,1.5,1.2c0.4,0.1,0.9,0.1,1.3-0.1c0.6-0.2,1.1-0.6,1.3-1.2l0.2-0.4l1.6,1.6l-0.9,1.9c-0.4,0.9-0.2,2,0.5,2.7
				c0.7,0.7,1.9,0.9,2.8,0.4c0.4-0.2,0.8-0.6,1-1l0.2-0.4l1.6,1.6l-0.9,1.9c-0.4,0.9-0.2,2,0.5,2.7c0.7,0.7,1.9,0.9,2.8,0.4
				c0.4-0.2,0.8-0.6,1-1l0.2-0.4l2.5,2.5c0.9,0.9,2.4,0.9,3.3,0l4.3-4.3C63.9,281.7,63.9,280.2,63,279.3z M24.2,263.4
				c-0.3,0.3-0.8,0.3-1.1,0l-4.3-4.3c-0.3-0.3-0.3-0.8,0-1.1l2.3-2.3l5.4,5.4L24.2,263.4z M31.8,245l2.3-2.3c0.3-0.3,0.8-0.3,1.1,0
				l4.3,4.3c0.3,0.3,0.3,0.8,0,1.1l-2.3,2.3L31.8,245z M30.2,259.5l5.4-5.4l2.6,2.6l-3.5,7.2L30.2,259.5z M35.8,268.7
				c-0.2,0.4-0.7,0.6-1.1,0.3c-0.3-0.2-0.4-0.6-0.3-1l6-12.5c0.2-0.4,0.7-0.5,1-0.4c0.4,0.2,0.5,0.7,0.4,1L35.8,268.7z M38.2,267.5
				l3.5-7.2l1.6,1.6l-3.5,7.2L38.2,267.5z M41,273.8c-0.2,0.4-0.7,0.5-1,0.4c-0.4-0.2-0.5-0.7-0.4-1l6-12.5c0.2-0.4,0.6-0.5,1-0.4
				c0.4,0.2,0.6,0.7,0.4,1L41,273.8z M43.3,272.6l3.5-7.2l1.6,1.6l-3.5,7.2L43.3,272.6z M46.1,279c-0.2,0.4-0.7,0.5-1,0.4
				c-0.4-0.2-0.5-0.7-0.4-1l6-12.5c0.2-0.4,0.7-0.5,1-0.4c0.4,0.2,0.5,0.7,0.4,1L46.1,279z M48.5,277.8l3.5-7.2l1.6,1.6l-3.5,7.2
				L48.5,277.8z M51.3,284.1c-0.2,0.4-0.7,0.5-1,0.4c-0.4-0.2-0.5-0.7-0.4-1l6-12.5c0.2-0.4,0.7-0.5,1-0.4s0.5,0.7,0.4,1L51.3,284.1
				z M61.9,281.5l-4.3,4.3c-0.1,0.1-0.3,0.2-0.6,0.2c-0.2,0-0.4-0.1-0.6-0.2l-2.9-2.9l3.5-7.2l4.8,4.8c0.1,0.1,0.2,0.3,0.2,0.6
				C62.1,281.2,62,281.4,61.9,281.5z"/>
		</g>
	</g>
	<g>
		<g>
			<path class="st8" d="M36.1,279.4l-4.5-7.8c-0.4-0.7-1.2-1.2-2-1.2h-9c-0.8,0-1.6,0.4-2,1.2l-4.5,7.8c-0.4,0.7-0.4,1.6,0,2.3
				l4.5,7.8c0.4,0.7,1.2,1.2,2,1.2h1.3c0.4,0,0.8-0.3,0.8-0.8s-0.3-0.8-0.8-0.8h-1.3c-0.3,0-0.5-0.1-0.7-0.4l-4.5-7.8
				c-0.1-0.2-0.1-0.5,0-0.8l4.5-7.8c0.1-0.2,0.4-0.4,0.7-0.4h9c0.3,0,0.5,0.1,0.7,0.4l4.5,7.8c0.1,0.2,0.1,0.5,0,0.8l-4.5,7.8
				c-0.1,0.2-0.4,0.4-0.7,0.4h-3.5c-0.4,0-0.8,0.3-0.8,0.8s0.3,0.8,0.8,0.8h3.5c0.8,0,1.6-0.4,2-1.2l4.5-7.8
				C36.5,281,36.5,280.1,36.1,279.4z"/>
		</g>
	</g>
	<g>
		<g>
			<path class="st8" d="M33.7,280.2l-4-6.9c-0.1-0.2-0.4-0.4-0.7-0.4h-7.9c-0.3,0-0.5,0.1-0.7,0.4l-4,6.9c-0.1,0.2-0.1,0.5,0,0.8
				l4,6.9c0.1,0.2,0.4,0.4,0.7,0.4h7.9c0.3,0,0.5-0.1,0.7-0.4l4-6.9C33.8,280.7,33.8,280.4,33.7,280.2z M28.6,286.7h-7l-3.5-6.1
				l3.5-6.1h7l3.5,6.1L28.6,286.7z"/>
		</g>
	</g>
</g>
<g>
	<g>
		<g class="st13">
			<path class="st9" d="M222.5,281.3h-6.4v-30.6h17.5v5.3h-11.1v7.9h10.4v5.3h-10.4V281.3z"/>
			<path class="st9" d="M252.2,257.5c0.9,0,1.6,0.1,2.2,0.2l-0.5,6c-0.5-0.1-1.1-0.2-1.9-0.2c-2,0-3.6,0.5-4.8,1.6
				c-1.1,1-1.7,2.5-1.7,4.4v11.9h-6.4V258h4.8l0.9,3.9h0.3c0.7-1.3,1.7-2.4,2.9-3.2C249.4,257.9,250.7,257.5,252.2,257.5z"/>
			<path class="st9" d="M279.8,269.6c0,3.8-1,6.8-3,8.9c-2,2.1-4.8,3.2-8.4,3.2c-2.2,0-4.2-0.5-5.9-1.5c-1.7-1-3-2.4-3.9-4.2
				c-0.9-1.8-1.4-4-1.4-6.4c0-3.8,1-6.8,3-8.9c2-2.1,4.8-3.2,8.4-3.2c2.2,0,4.2,0.5,5.9,1.5c1.7,1,3,2.4,3.9,4.2
				C279.3,265,279.8,267.1,279.8,269.6z M263.6,269.6c0,2.3,0.4,4.1,1.1,5.2c0.8,1.2,2,1.8,3.7,1.8c1.7,0,2.9-0.6,3.7-1.8
				c0.7-1.2,1.1-2.9,1.1-5.3c0-2.3-0.4-4-1.1-5.2c-0.8-1.2-2-1.7-3.7-1.7c-1.7,0-2.9,0.6-3.7,1.7C264,265.5,263.6,267.3,263.6,269.6
				z"/>
			<path class="st9" d="M306,281.3h-6.4v-13.6c0-1.7-0.3-3-0.8-3.8c-0.6-0.8-1.5-1.3-2.7-1.3c-1.6,0-2.8,0.6-3.6,1.8
				c-0.7,1.2-1.1,3.2-1.1,5.9v11h-6.4V258h4.9l0.9,3h0.4c0.6-1.1,1.5-1.9,2.7-2.5c1.2-0.6,2.5-0.9,4.1-0.9c3.5,0,5.9,1.1,7.1,3.4
				h0.6c0.6-1.1,1.5-1.9,2.8-2.5c1.2-0.6,2.6-0.9,4.1-0.9c2.6,0,4.7,0.7,6,2c1.4,1.4,2,3.5,2,6.5v15.2h-6.4v-13.6
				c0-1.7-0.3-3-0.8-3.8c-0.6-0.8-1.5-1.3-2.7-1.3c-1.6,0-2.7,0.6-3.5,1.7c-0.8,1.1-1.2,2.9-1.2,5.3V281.3z"/>
			<path class="st9" d="M368.5,281.3h-7.4l-4.1-16.1c-0.2-0.6-0.4-1.8-0.8-3.5c-0.4-1.8-0.6-3-0.6-3.6c-0.1,0.8-0.3,2-0.6,3.6
				s-0.6,2.9-0.8,3.6l-4.1,16h-7.4l-7.8-30.6h6.4l3.9,16.7c0.7,3.1,1.2,5.7,1.5,8c0.1-0.8,0.3-2,0.6-3.7c0.3-1.7,0.6-3,0.8-3.9
				l4.5-17.1h6.1l4.5,17.1c0.2,0.8,0.4,1.9,0.7,3.5c0.3,1.6,0.5,2.9,0.7,4.1c0.1-1.1,0.4-2.4,0.7-4.1c0.3-1.6,0.6-2.9,0.8-3.9
				l3.9-16.7h6.4L368.5,281.3z"/>
			<path class="st9" d="M400.8,269.6c0,3.8-1,6.8-3,8.9c-2,2.1-4.8,3.2-8.4,3.2c-2.2,0-4.2-0.5-5.9-1.5c-1.7-1-3-2.4-3.9-4.2
				c-0.9-1.8-1.4-4-1.4-6.4c0-3.8,1-6.8,3-8.9c2-2.1,4.8-3.2,8.4-3.2c2.2,0,4.2,0.5,5.9,1.5c1.7,1,3,2.4,3.9,4.2
				C400.4,265,400.8,267.1,400.8,269.6z M384.7,269.6c0,2.3,0.4,4.1,1.1,5.2c0.8,1.2,2,1.8,3.7,1.8c1.7,0,2.9-0.6,3.7-1.8
				c0.7-1.2,1.1-2.9,1.1-5.3c0-2.3-0.4-4-1.1-5.2c-0.8-1.2-2-1.7-3.7-1.7c-1.7,0-2.9,0.6-3.7,1.7C385,265.5,384.7,267.3,384.7,269.6
				z"/>
			<path class="st9" d="M427.3,269.6c0,3.8-1,6.8-3,8.9c-2,2.1-4.8,3.2-8.4,3.2c-2.2,0-4.2-0.5-5.9-1.5c-1.7-1-3-2.4-3.9-4.2
				c-0.9-1.8-1.4-4-1.4-6.4c0-3.8,1-6.8,3-8.9c2-2.1,4.8-3.2,8.4-3.2c2.2,0,4.2,0.5,5.9,1.5c1.7,1,3,2.4,3.9,4.2
				C426.9,265,427.3,267.1,427.3,269.6z M411.2,269.6c0,2.3,0.4,4.1,1.1,5.2c0.8,1.2,2,1.8,3.7,1.8c1.7,0,2.9-0.6,3.7-1.8
				c0.7-1.2,1.1-2.9,1.1-5.3c0-2.3-0.4-4-1.1-5.2c-0.8-1.2-2-1.7-3.7-1.7c-1.7,0-2.9,0.6-3.7,1.7
				C411.5,265.5,411.2,267.3,411.2,269.6z"/>
			<path class="st9" d="M440,281.7c-2.7,0-4.9-1.1-6.5-3.2c-1.6-2.1-2.4-5.1-2.4-8.9c0-3.8,0.8-6.8,2.4-9c1.6-2.1,3.8-3.2,6.6-3.2
				c2.9,0,5.2,1.1,6.7,3.4h0.2c-0.3-1.7-0.5-3.3-0.5-4.7v-7.5h6.4v32.5h-4.9l-1.2-3h-0.3C445.2,280.6,442.9,281.7,440,281.7z
				 M442.2,276.7c1.6,0,2.8-0.5,3.6-1.4c0.8-0.9,1.2-2.6,1.2-4.8v-0.7c0-2.5-0.4-4.3-1.2-5.4c-0.8-1.1-2-1.6-3.8-1.6
				c-1.4,0-2.5,0.6-3.3,1.8c-0.8,1.2-1.2,3-1.2,5.3s0.4,4,1.2,5.2C439.6,276.1,440.7,276.7,442.2,276.7z"/>
		</g>
	</g>
</g>
</svg>
