<?xml version="1.0" encoding="utf-8"?>
<!-- Generator: Adobe Illustrator 21.1.0, SVG Export Plug-In . SVG Version: 6.00 Build 0)  -->
<svg version="1.1" id="Layer_1" xmlns="http://www.w3.org/2000/svg" xmlns:xlink="http://www.w3.org/1999/xlink" x="0px" y="0px"
	 width="767px" height="689.5px" viewBox="0 0 767 689.5" style="enable-background:new 0 0 767 689.5;" xml:space="preserve">
<style type="text/css">
	.st0{fill:#7BACDD;}
	.st1{fill:#7BACDD;stroke:#7BACDD;stroke-width:4;stroke-miterlimit:10;}
	.st2{fill:#009CEA;stroke:#7BACDD;stroke-miterlimit:10;}
	.st3{fill:#009CEA;stroke:#009CEA;stroke-miterlimit:10;}
	.st4{enable-background:new    ;}
	.st5{fill:#70B2BC;}
</style>
<g>
	<g>
		<path class="st0" d="M383.3,0C256.1,0,153,103.1,153,230.3s103.1,230.3,230.3,230.3s230.3-103.1,230.3-230.3S510.5,0,383.3,0z
			 M383.3,443.7c-117.8,0-213.3-95.5-213.3-213.3S265.5,17,383.3,17s213.3,95.5,213.3,213.3C596.7,348.2,501.1,443.7,383.3,443.7z"
			/>
	</g>
	<g>
		<g>
			<path class="st1" d="M216.6,218.6c-2.2-37.7,9.4-76.5,33.5-105.7c6.1-7.5,13.2-14,21.7-18.7c8.7-4.8,18.2-7.8,27.5-11.3
				c18.4-7,36-15.9,54.1-23.7c32.8-14.1,72.9-25.1,106.6-7.2c29.3,15.6,38.7,49.4,55.3,75.7c8.1,12.9,18.2,22.5,30.6,31.3
				c7,5,14.3,10.2,18.7,17.8c5.2,9,5.1,20,4.8,30.1c-1,34.7-10.5,69.5-29,99c-9.2,14.7-20.8,27.8-34.3,38.7
				c-15.2,12.2-32.6,21.4-50.2,29.4c-17.9,8.2-36.4,16.4-55.3,22.3c-10.2,3.2-20.7,5.1-31.5,5c-10.4-0.1-20.7-1.8-31-3.6
				c-9.6-1.6-19.3-3.3-29.1-3.9c-9.6-0.6-19.3,0.7-28.8-0.2c-21.3-2-31.6-21.4-36.4-40.2c-2.7-10.4-3.4-20.9-2.8-31.5
				c0.6-9.4,1.4-18.6-0.1-27.9c-3-18.5-10.7-36-17.3-53.5C221,233.9,216.7,225.7,216.6,218.6c0-1.9-3-1.9-3,0
				c0,7.5,4.3,15.7,6.9,22.6c3.5,9.2,7.1,18.4,10.4,27.7c3.3,9.7,6.4,19.8,7.5,30.1c1.1,10.8-1,21.5-0.8,32.3
				c0.3,18,5.4,38.3,17.1,52.4c5.6,6.7,13,11.1,21.7,12.5c9.2,1.5,18.6,0.3,27.9,0.4c21.8,0.4,42.9,7.4,64.7,7.6
				c21.5,0.3,41.2-7.9,60.7-15.9c35.9-14.7,72.3-30.8,98.3-60.8c23.3-26.9,37.2-61.1,42.2-96.1c1.2-8.6,2-17.3,2.2-26.1
				c0.2-9.2,0.1-18.8-3.8-27.3c-7.1-15.6-24.7-22.2-36.4-33.6C508.3,121.3,502,86,478.7,62.4c-25.1-25.5-64.1-26.4-96.6-17
				c-20.1,5.8-39,15-57.9,23.7c-10.1,4.6-20.3,9-30.8,12.8c-9.2,3.4-18.6,6.7-27,12c-15.7,10.1-27.1,26.7-35.6,43.1
				c-8.6,16.6-14.1,34.8-16.4,53.3c-1.2,9.4-1.4,18.9-0.9,28.4C213.8,220.6,216.8,220.6,216.6,218.6z"/>
		</g>
	</g>
	<g>
		<g>
			<path class="st1" d="M256.1,209.1c2.3-26.3,17-48.7,35-67.2c9.1-9.3,19-17.8,29.2-25.9c11.4-9,23.1-18.5,36.8-23.7
				c24.3-9.4,51.8-1.5,71.2,14.7c21,17.6,27.4,45.3,46.3,64.4c9.4,9.5,20.9,17.6,27,29.9c6.1,12.5,6.6,27.9,5.2,41.5
				c-2.8,27.6-16.4,53.8-37.6,71.7c-21.5,18.2-49.1,26.8-77.1,25.5c-14.5-0.6-29.1-2.9-43.6-0.6c-15,2.3-27.7,10.9-42.1,15.2
				c-5.5,1.6-10.1,1.5-14.2-2.8c-2.7-2.8-4.8-6.5-6.8-9.9c-3.7-6.3-6.6-13-9-19.9c-5-14.3-7.7-29.3-10.3-44.2c-1.3-7-2.5-14-3.9-21
				c-1.5-7.3-3.8-14.5-5.2-21.8c-1-5.7,0.3-11.2,0.1-16.8C256.9,215.2,256.4,212.1,256.1,209.1c-0.2-1.9-3.2-1.9-3,0
				c0.3,3,0.8,6.1,0.9,9.2c0.2,5-0.9,10.1-0.3,15.1c0.7,6.4,3,12.6,4.4,18.9c1.5,6.9,2.8,13.9,4.1,20.9c4.8,26.9,9,57.1,26.5,79.3
				c3.5,4.4,7.9,7.1,13.6,6.4c7-0.9,13.8-4.3,20.2-7.2c7.8-3.5,15.6-7,24-8.7c8.8-1.7,17.8-1.5,26.7-1c15.5,0.9,30.8,2.4,46.2-0.5
				c13.4-2.5,26.4-7.6,38.1-14.7c23.9-14.6,41.4-38.1,48.8-65.1c3.7-13.4,5-27.7,3.4-41.5c-1.6-14-7.1-25.5-16.9-35.5
				c-5-5.1-10.4-9.6-15.5-14.6c-5.6-5.6-10.3-12-14.4-18.8c-7.3-12.2-13.1-25.4-22.5-36.3c-16.3-18.9-41.7-31.6-67-29.3
				c-13.9,1.2-26.2,7.3-37.5,15.1c-11.6,8-22.8,17-33.4,26.3c-19.6,17.3-38.1,38-45.9,63.4c-1.9,6.1-3,12.4-3.6,18.8
				C252.9,211,255.9,211,256.1,209.1z"/>
		</g>
	</g>
	<path id="XMLID_5_" class="st2" d="M414,204.3v40.5c0,1.5-0.4,2.7-1.1,3.8s-1.6,1.6-2.7,1.6h-20.8V219h-20.1v31.3h-20
		c-1,0-1.9-0.5-2.7-1.6s-1.1-2.3-1.1-3.8v-40.5c0-0.1,0-0.1,0-0.3c0-0.1,0-0.2,0-0.3l33.8-29.5l34.6,29.5
		C414,203.9,414,204.1,414,204.3z"/>
</g>
<g>
	<path class="st3" d="M162.7,645.3h5.1L154.6,660l14.3,15.8h-5.4l-13.9-15.4v15.4H145v-30.5h4.6v14.8L162.7,645.3z"/>
	<path class="st3" d="M188.7,676.3c-2,0-3.8-0.4-5.4-1.1c-1.6-0.7-3-1.9-4.1-3.4h-0.3c0.2,1.8,0.3,3.5,0.3,5.1v12.6h-4.6v-44.2h3.8
		l0.6,4.2h0.2c1.2-1.7,2.6-2.9,4.1-3.6s3.4-1.1,5.4-1.1c4,0,7.2,1.4,9.4,4.1c2.2,2.8,3.3,6.6,3.3,11.6c0,5-1.1,8.9-3.4,11.7
		C195.8,674.9,192.7,676.3,188.7,676.3z M188.1,648.6c-3.1,0-5.4,0.9-6.8,2.6s-2.1,4.5-2.1,8.2v1c0,4.3,0.7,7.4,2.1,9.2
		c1.4,1.8,3.7,2.8,6.9,2.8c2.6,0,4.7-1.1,6.2-3.2s2.2-5.1,2.2-8.8c0-3.8-0.7-6.7-2.2-8.8S190.8,648.6,188.1,648.6z"/>
	<path class="st3" d="M235.8,660.5c0,5-1.3,8.9-3.8,11.6s-6,4.2-10.4,4.2c-2.7,0-5.1-0.6-7.3-1.9c-2.1-1.3-3.7-3.1-4.9-5.5
		c-1.2-2.4-1.7-5.2-1.7-8.4c0-5,1.2-8.8,3.7-11.6c2.5-2.8,5.9-4.2,10.4-4.2c4.3,0,7.7,1.4,10.2,4.3
		C234.5,651.8,235.8,655.6,235.8,660.5z M212.6,660.5c0,3.9,0.8,6.9,2.3,8.9s3.9,3.1,6.9,3.1c3,0,5.3-1,6.9-3c1.6-2,2.4-5,2.4-8.9
		c0-3.9-0.8-6.8-2.4-8.8c-1.6-2-3.9-3-6.9-3c-3,0-5.3,1-6.8,3C213.3,653.6,212.6,656.6,212.6,660.5z"/>
	<path class="st3" d="M268.6,652.9c0,2-0.6,3.5-1.7,4.5c-1.1,1-2.7,1.7-4.8,2.1v0.3c2.6,0.4,4.5,1.1,5.7,2.3
		c1.2,1.2,1.8,2.8,1.8,4.8c0,2.8-1,5-3.1,6.6c-2.1,1.5-5.1,2.3-9.1,2.3h-13.4v-30.5h13.4C264.9,645.3,268.6,647.8,268.6,652.9z
		 M264.1,653.4c0-1.5-0.6-2.5-1.7-3.2c-1.1-0.6-2.9-0.9-5.2-0.9h-8.7v8.6h7.8c2.9,0,4.9-0.4,6-1.1S264.1,655,264.1,653.4z
		 M265,666.6c0-1.7-0.6-2.9-1.9-3.6c-1.3-0.8-3.3-1.1-6.2-1.1h-8.4v10h8.5C262.3,671.9,265,670.1,265,666.6z"/>
	<path class="st3" d="M295.1,675.8l-0.9-4.3h-0.2c-1.5,1.9-3,3.2-4.5,3.9c-1.5,0.7-3.4,1-5.7,1c-3,0-5.4-0.8-7.1-2.3
		s-2.6-3.8-2.6-6.7c0-6.2,4.9-9.4,14.8-9.7l5.2-0.2v-1.9c0-2.4-0.5-4.2-1.5-5.3c-1-1.1-2.7-1.7-4.9-1.7c-2.5,0-5.4,0.8-8.6,2.3
		l-1.4-3.5c1.5-0.8,3.1-1.5,4.9-1.9s3.6-0.7,5.4-0.7c3.6,0,6.3,0.8,8.1,2.4c1.8,1.6,2.6,4.2,2.6,7.8v20.8L295.1,675.8L295.1,675.8z
		 M284.6,672.5c2.9,0,5.1-0.8,6.8-2.4c1.6-1.6,2.5-3.8,2.5-6.6v-2.8l-4.6,0.2c-3.7,0.1-6.3,0.7-7.9,1.7c-1.6,1-2.4,2.6-2.4,4.7
		c0,1.7,0.5,2.9,1.5,3.8S282.8,672.5,284.6,672.5z"/>
	<path class="st3" d="M328.6,649.2h-9.9v26.6h-4.6v-26.6h-9.8v-4h24.3L328.6,649.2L328.6,649.2z"/>
	<path class="st3" d="M352.4,645.3h5.1L344.3,660l14.3,15.8h-5.4l-13.9-15.4v15.4h-4.6v-30.5h4.6v14.8L352.4,645.3z"/>
	<path class="st3" d="M368.6,645.3v19.3l-0.2,5.1l-0.1,1.6l16.5-26h5.8v30.5h-4.3v-18.6l0.1-3.7l0.1-3.6L370,675.8h-5.8v-30.5
		L368.6,645.3L368.6,645.3z"/>
	<path class="st3" d="M397.8,662.6v-4.2h13.7v4.2H397.8z"/>
	<path class="st3" d="M445.2,686.3h-4.5v-10.5h-21.3v10.5h-4.5v-14.5h2.4c2.5-3.4,4.4-7.3,5.8-11.9s2.1-9.4,2.2-14.6h15.4v26.5h4.4
		L445.2,686.3L445.2,686.3z M436.4,671.8v-22.9h-6.8c-0.2,4.1-1,8.3-2.4,12.5c-1.3,4.2-3,7.7-5,10.4H436.4z"/>
	<path class="st3" d="M477.6,660.5c0,5-1.3,8.9-3.8,11.6s-6,4.2-10.4,4.2c-2.7,0-5.1-0.6-7.3-1.9c-2.1-1.3-3.7-3.1-4.9-5.5
		c-1.2-2.4-1.7-5.2-1.7-8.4c0-5,1.2-8.8,3.7-11.6c2.5-2.8,5.9-4.2,10.4-4.2c4.3,0,7.7,1.4,10.2,4.3
		C476.4,651.8,477.6,655.6,477.6,660.5z M454.4,660.5c0,3.9,0.8,6.9,2.3,8.9s3.9,3.1,6.9,3.1s5.3-1,6.9-3c1.6-2,2.4-5,2.4-8.9
		c0-3.9-0.8-6.8-2.4-8.8s-3.9-3-6.9-3c-3,0-5.3,1-6.8,3S454.4,656.6,454.4,660.5z"/>
	<path class="st3" d="M501.5,671.3l0.9-2.6l1.2-3.3l8.3-20.1h5.9v30.4h-4.1v-25.2l-0.6,1.6l-1.6,4.3l-7.9,19.3h-3.9l-7.9-19.4
		c-1-2.5-1.7-4.4-2-5.8v25.2h-4.1v-30.4h5.6l8,19.3C500.1,666.7,500.9,668.9,501.5,671.3z"/>
	<path class="st3" d="M531.9,645.3v19.3l-0.2,5.1l-0.1,1.6l16.5-26h5.8v30.5h-4.3v-18.6l0.1-3.7l0.1-3.6l-16.5,25.9h-5.8v-30.5
		L531.9,645.3L531.9,645.3z"/>
	<path class="st3" d="M581.5,645.3h5.1L573.4,660l14.3,15.8h-5.4l-13.9-15.4v15.4h-4.6v-30.5h4.6v14.8L581.5,645.3z"/>
	<path class="st3" d="M597.6,645.3v19.3l-0.2,5.1l-0.1,1.6l16.5-26h5.8v30.5h-4.3v-18.6l0.1-3.7l0.1-3.6l-16.5,25.9h-5.8v-30.5
		L597.6,645.3L597.6,645.3z"/>
</g>
<g>
	<g>
		<g class="st4">
			<path class="st5" d="M22.6,603.5H2.1V505h56.5v17.1H22.6v25.4H56v17H22.6V603.5z"/>
			<path class="st5" d="M118.2,526.8c2.8,0,5.1,0.2,6.9,0.6l-1.5,19.3c-1.7-0.4-3.7-0.7-6.1-0.7c-6.6,0-11.7,1.7-15.3,5.1
				c-3.7,3.4-5.5,8.1-5.5,14.2v38.3H76.2v-75.3h15.6l3,12.7h1c2.3-4.2,5.5-7.6,9.5-10.2C109.2,528.1,113.6,526.8,118.2,526.8z"/>
			<path class="st5" d="M207.3,565.7c0,12.3-3.2,21.9-9.7,28.8c-6.5,6.9-15.5,10.4-27,10.4c-7.2,0-13.6-1.6-19.1-4.8
				c-5.5-3.2-9.8-7.7-12.7-13.6s-4.4-12.8-4.4-20.8c0-12.3,3.2-21.9,9.6-28.7c6.4-6.8,15.5-10.2,27.1-10.2c7.2,0,13.6,1.6,19.1,4.7
				c5.5,3.1,9.8,7.7,12.7,13.5C205.8,550.9,207.3,557.8,207.3,565.7z M155.2,565.7c0,7.5,1.2,13.1,3.7,16.9c2.4,3.8,6.4,5.7,12,5.7
				c5.5,0,9.4-1.9,11.8-5.7c2.4-3.8,3.6-9.4,3.6-16.9c0-7.5-1.2-13-3.6-16.8c-2.4-3.7-6.4-5.6-11.9-5.6c-5.5,0-9.4,1.9-11.9,5.6
				C156.4,552.6,155.2,558.2,155.2,565.7z"/>
			<path class="st5" d="M291.7,603.5h-20.6v-44c0-5.4-0.9-9.5-2.7-12.2c-1.8-2.7-4.7-4.1-8.6-4.1c-5.3,0-9.1,1.9-11.5,5.8
				c-2.4,3.9-3.6,10.2-3.6,19.1v35.4h-20.6v-75.3H240l2.8,9.6h1.1c2-3.5,4.9-6.2,8.8-8.1c3.8-2,8.2-2.9,13.1-2.9
				c11.3,0,18.9,3.7,22.9,11.1h1.8c2-3.5,5-6.2,8.9-8.2c3.9-1.9,8.4-2.9,13.3-2.9c8.5,0,15,2.2,19.4,6.6c4.4,4.4,6.6,11.4,6.6,21.1
				v49.1h-20.6v-44c0-5.4-0.9-9.5-2.7-12.2c-1.8-2.7-4.7-4.1-8.6-4.1c-5,0-8.8,1.8-11.3,5.4c-2.5,3.6-3.7,9.3-3.7,17.1V603.5z"/>
			<path class="st5" d="M493.2,603.5h-23.8l-13.3-51.8c-0.5-1.8-1.3-5.6-2.5-11.4c-1.2-5.8-1.9-9.6-2.1-11.6
				c-0.3,2.4-0.9,6.3-2,11.7s-1.9,9.2-2.5,11.5l-13.3,51.6H410L384.9,505h20.6l12.6,53.8c2.2,9.9,3.8,18.5,4.8,25.8
				c0.3-2.6,0.9-6.5,1.9-11.9c1-5.4,1.9-9.5,2.7-12.5l14.4-55.2h19.7l14.4,55.2c0.6,2.5,1.4,6.2,2.4,11.3c0.9,5.1,1.7,9.4,2.2,13.1
				c0.4-3.5,1.2-7.9,2.2-13.1c1-5.2,1.9-9.5,2.7-12.7l12.5-53.8h20.6L493.2,603.5z"/>
			<path class="st5" d="M597.5,565.7c0,12.3-3.2,21.9-9.7,28.8c-6.5,6.9-15.5,10.4-27,10.4c-7.2,0-13.6-1.6-19.1-4.8
				c-5.5-3.2-9.8-7.7-12.7-13.6s-4.4-12.8-4.4-20.8c0-12.3,3.2-21.9,9.6-28.7c6.4-6.8,15.5-10.2,27.1-10.2c7.2,0,13.6,1.6,19.1,4.7
				c5.5,3.1,9.8,7.7,12.7,13.5C596,550.9,597.5,557.8,597.5,565.7z M545.4,565.7c0,7.5,1.2,13.1,3.7,16.9c2.4,3.8,6.4,5.7,12,5.7
				c5.5,0,9.4-1.9,11.8-5.7c2.4-3.8,3.6-9.4,3.6-16.9c0-7.5-1.2-13-3.6-16.8c-2.4-3.7-6.4-5.6-11.9-5.6c-5.5,0-9.4,1.9-11.9,5.6
				C546.6,552.6,545.4,558.2,545.4,565.7z"/>
			<path class="st5" d="M683,565.7c0,12.3-3.2,21.9-9.7,28.8c-6.5,6.9-15.5,10.4-27,10.4c-7.2,0-13.6-1.6-19.1-4.8
				c-5.5-3.2-9.8-7.7-12.7-13.6s-4.4-12.8-4.4-20.8c0-12.3,3.2-21.9,9.6-28.7c6.4-6.8,15.5-10.2,27.1-10.2c7.2,0,13.6,1.6,19.1,4.7
				c5.5,3.1,9.8,7.7,12.7,13.5C681.5,550.9,683,557.8,683,565.7z M630.9,565.7c0,7.5,1.2,13.1,3.7,16.9c2.4,3.8,6.4,5.7,12,5.7
				c5.5,0,9.4-1.9,11.8-5.7c2.4-3.8,3.6-9.4,3.6-16.9c0-7.5-1.2-13-3.6-16.8c-2.4-3.7-6.4-5.6-11.9-5.6c-5.5,0-9.4,1.9-11.9,5.6
				C632.1,552.6,630.9,558.2,630.9,565.7z"/>
			<path class="st5" d="M723.8,604.9c-8.9,0-15.8-3.4-20.9-10.3c-5.1-6.9-7.6-16.4-7.6-28.6c0-12.4,2.6-22,7.7-28.9
				c5.1-6.9,12.2-10.3,21.3-10.3c9.5,0,16.7,3.7,21.7,11.1h0.7c-1-5.6-1.5-10.6-1.5-15v-24.1h20.6v104.8H750l-4-9.8h-0.9
				C740.5,601.2,733.4,604.9,723.8,604.9z M731,588.5c5.3,0,9.1-1.5,11.6-4.6c2.4-3.1,3.8-8.2,4-15.6v-2.2c0-8.1-1.2-13.9-3.7-17.4
				c-2.5-3.5-6.5-5.3-12.2-5.3c-4.6,0-8.1,1.9-10.7,5.8c-2.5,3.9-3.8,9.5-3.8,16.9s1.3,13,3.8,16.7
				C722.6,586.6,726.2,588.5,731,588.5z"/>
		</g>
	</g>
</g>
</svg>
